<svg xmlns="http://www.w3.org/2000/svg"
  viewBox="0 0 300 169"
 preserveAspectRatio="xMidYMid meet" className='size-10'>
<g transform="translate(0,169) scale(0.1,-0.1)"
fill="#000000" stroke="none">
<path d="M1500 1110 c-79 -10 -140 -33 -290 -112 -102 -53 -124 -61 -195 -68
-280 -29 -263 -24 -447 -124 -109 -59 -132 -86 -123 -141 3 -22 7 -58 9 -80 3
-57 23 -100 52 -114 40 -18 1931 -15 1963 3 21 12 -130 14 -973 14 -715 0
-1001 3 -1009 11 -14 14 -25 11 118 26 l120 12 -117 2 c-115 1 -148 6 -148 21
0 4 9 10 21 13 16 4 19 10 14 29 -4 13 -14 30 -21 39 -19 22 -17 59 4 76 9 7
55 34 102 59 47 24 100 54 118 66 33 20 250 57 349 58 32 0 79 19 206 84 182
93 210 100 373 98 130 -1 207 -14 384 -64 80 -22 174 -48 210 -58 120 -34 224
-79 253 -110 15 -16 32 -30 37 -30 16 0 24 -51 10 -60 -10 -6 -10 -18 -1 -58
11 -45 10 -54 -8 -90 -11 -22 -29 -43 -38 -46 -38 -11 -151 -26 -213 -28 -41
-1 -18 -4 60 -8 69 -4 136 -10 149 -14 20 -7 23 -5 18 9 -5 10 5 31 25 56 31
39 32 44 34 139 l2 99 -51 48 c-54 51 -123 81 -312 133 -44 13 -118 33 -165
47 -144 40 -201 52 -309 63 -112 11 -116 11 -211 0z"/>
<path d="M1384 1025 c-10 -8 -27 -15 -37 -15 -10 0 -16 -4 -13 -9 7 -10 -99
-82 -128 -86 -12 -2 -34 -8 -51 -13 l-30 -10 40 -1 c30 -1 36 -4 27 -13 -7 -7
-12 -17 -12 -22 0 -6 5 -3 11 7 13 21 66 23 89 2 10 -9 41 -18 71 -21 50 -5
53 -4 35 10 -11 9 -28 16 -38 16 -10 0 -18 5 -18 10 0 6 16 10 35 10 25 0 35
4 35 16 0 14 -9 15 -62 9 -35 -4 -66 -12 -69 -17 -4 -5 -17 -8 -30 -6 -21 3
-16 8 36 42 33 22 84 55 114 73 36 22 48 33 35 33 -11 0 -29 -7 -40 -15z"/>
<path d="M1485 1027 c-22 -8 -69 -33 -105 -56 -36 -24 -56 -40 -45 -36 11 4
27 8 35 10 8 1 38 14 67 28 29 15 60 27 68 27 9 0 13 5 9 11 -9 15 221 4 345
-16 52 -9 95 -14 97 -12 2 2 -40 14 -94 27 -120 28 -317 37 -377 17z"/>
<path d="M1696 992 c-3 -3 -6 -23 -6 -45 l0 -39 108 6 c178 10 242 20 242 36
0 12 -47 22 -120 25 l-65 2 55 -16 55 -17 -34 -7 c-18 -4 -56 -7 -83 -7 -48 0
-49 1 -46 28 2 23 -1 27 -23 30 -22 3 -27 -2 -32 -27 -4 -17 -11 -31 -17 -31
-14 0 -13 47 2 52 7 3 3 7 -9 10 -12 3 -24 3 -27 0z"/>
<path d="M2046 916 c4 -11 -3 -13 -38 -9 -31 3 -39 2 -29 -6 14 -9 -14 -8 -96
3 -25 3 -31 -8 -11 -20 6 -4 113 -8 237 -9 124 0 213 2 196 6 -16 4 -75 8
-130 9 -82 1 -94 4 -67 11 44 13 31 29 -23 29 -34 0 -43 -3 -39 -14z"/>
<path d="M1473 901 c-28 -4 -55 -10 -59 -14 -9 -9 159 -7 246 3 l65 7 -87 1
c-47 1 -92 4 -100 6 -7 1 -36 0 -65 -3z"/>
<path d="M2325 851 c-3 -5 3 -12 12 -14 14 -4 13 -5 -4 -6 -13 0 -23 4 -23 9
0 6 -10 10 -22 10 -22 -1 -23 -1 -4 -15 14 -10 44 -15 95 -14 52 0 70 3 56 9
-18 8 -18 9 -2 9 10 1 15 6 12 11 -8 13 -112 13 -120 1z"/>
<path d="M1984 831 c-42 -19 -88 -67 -78 -82 3 -5 1 -9 -4 -9 -6 0 -10 -6 -9
-12 0 -7 -1 -43 -1 -80 -2 -58 -5 -68 -20 -68 -10 0 -23 5 -29 11 -11 11 -677
-4 -720 -17 -22 -6 -23 -3 -23 43 0 61 -31 152 -60 175 -67 54 -194 45 -266
-19 -30 -27 -37 -50 -38 -133 l-1 -75 -45 -1 -45 -2 45 8 c41 6 37 7 -32 8
-43 1 -78 -2 -78 -7 0 -11 70 -21 158 -24 43 -1 61 -5 58 -13 -12 -30 104 -52
186 -35 42 9 55 16 54 29 -1 14 11 18 69 23 84 6 824 1 837 -7 4 -3 6 -9 3
-14 -5 -9 33 -25 82 -35 18 -4 58 -3 89 0 45 6 57 12 64 30 11 30 31 36 116
34 65 -2 191 17 181 27 -2 3 -33 0 -68 -6 -35 -5 -83 -10 -106 -10 l-43 0 0
64 c0 35 -3 72 -7 82 -4 12 -3 15 6 10 20 -13 -13 46 -41 70 -31 29 -66 46
-78 39 -6 -3 -10 -1 -10 4 0 18 -102 12 -146 -8z m177 -34 c46 -30 82 -101 76
-148 -4 -27 -16 -48 -48 -78 -82 -77 -157 -78 -237 -1 -37 36 -42 46 -42 87 0
94 69 162 166 163 37 0 61 -6 85 -23z m-1166 -16 c46 -26 75 -76 75 -130 0
-25 -5 -53 -11 -61 -8 -11 -9 -8 -4 14 5 26 4 27 -10 13 -8 -9 -15 -21 -15
-28 0 -15 -47 -59 -54 -51 -3 3 -6 0 -6 -7 0 -8 -6 -11 -16 -7 -8 3 -12 2 -9
-4 4 -6 -7 -10 -24 -10 -17 0 -31 5 -31 11 0 6 -7 9 -15 5 -8 -3 -15 0 -15 6
0 6 -3 8 -7 5 -3 -4 -12 1 -19 11 -7 9 -18 17 -26 17 -7 0 -12 8 -12 18 1 9
-2 15 -6 12 -23 -14 -36 84 -17 122 43 83 140 111 222 64z m748 -218 c-62 -2
-165 -2 -230 0 -65 1 -14 3 112 3 127 0 180 -2 118 -3z"/>
<path d="M2035 803 c-30 -8 -65 -34 -77 -57 -8 -17 -4 -15 19 7 17 16 50 35
74 42 41 13 28 19 -16 8z"/>
<path d="M2130 782 c19 -9 45 -32 57 -51 26 -39 31 -33 7 9 -17 28 -62 60 -86
60 -7 0 3 -8 22 -18z"/>
<path d="M2058 775 c-3 -4 -12 -8 -20 -9 -7 -1 -24 -8 -37 -15 -16 -9 -20 -16
-12 -24 7 -7 14 -7 24 1 8 7 17 9 20 5 4 -3 7 0 7 8 0 23 52 17 77 -8 17 -18
23 -20 32 -9 13 15 -4 34 -35 41 -11 2 -26 6 -35 9 -8 4 -18 4 -21 1z"/>
<path d="M1967 713 c-11 -10 -8 -92 3 -113 12 -23 75 -60 103 -60 27 0 90 37
83 49 -3 5 -15 11 -26 14 -16 4 -20 0 -21 -21 0 -15 -3 -22 -5 -15 -4 8 -16
10 -35 6 -25 -5 -29 -3 -29 17 0 16 -4 20 -15 16 -8 -3 -21 -8 -28 -11 -14 -6
-15 -3 -21 58 -4 35 -2 37 18 31 21 -7 21 -6 2 15 -22 24 -20 23 -29 14z"/>
<path d="M2154 706 c-6 -17 2 -36 17 -36 12 0 12 37 -1 45 -6 3 -13 -1 -16 -9z"/>
<path d="M2053 664 c-9 -23 13 -40 32 -24 12 10 13 16 4 26 -15 18 -28 18 -36
-2z"/>
<path d="M2152 635 c-10 -21 -9 -27 3 -32 19 -7 22 -5 30 30 9 36 -17 37 -33
2z"/>
<path d="M844 771 c-18 -11 -35 -24 -39 -30 -3 -6 10 0 31 14 85 57 204 8 206
-86 1 -16 4 -29 9 -29 13 0 -2 64 -23 92 -41 58 -125 75 -184 39z"/>
<path d="M892 748 c7 -19 35 -21 41 -3 5 11 0 15 -19 15 -16 0 -24 -5 -22 -12z"/>
<path d="M835 724 c-29 -31 -34 -70 -9 -60 9 3 20 6 26 6 6 0 3 9 -7 20 -22
24 -9 27 17 3 27 -24 46 -4 30 32 -15 32 -27 32 -57 -1z"/>
<path d="M944 726 c-16 -35 -1 -55 24 -33 27 24 39 21 16 -4 -19 -22 -19 -22
6 -14 35 10 35 10 10 44 -26 37 -41 39 -56 7z"/>
<path d="M894 659 c-3 -6 0 -17 7 -25 18 -17 44 -2 36 20 -7 18 -33 21 -43 5z"/>
<path d="M964 652 c-6 -4 -11 -25 -12 -46 -2 -41 -12 -65 -12 -27 0 20 -25 40
-36 29 -8 -9 8 -38 17 -32 5 3 9 0 9 -5 0 -6 -11 -11 -25 -11 -18 0 -25 5 -25
20 0 16 -5 19 -23 15 -19 -5 -23 -2 -24 22 0 15 1 20 4 10 6 -22 37 -18 41 6
3 14 -4 17 -38 17 -38 0 -41 -2 -35 -22 11 -38 74 -88 110 -88 22 0 43 10 68
33 40 36 58 77 33 77 -8 0 -20 2 -28 5 -7 3 -18 1 -24 -3z m46 -24 c0 -23 -16
-39 -33 -32 -13 5 -14 9 -4 25 13 21 37 26 37 7z"/>
<path d="M1534 833 c3 -4 27 -6 51 -4 31 1 45 -2 45 -11 0 -9 2 -10 8 -2 4 7
16 14 27 17 11 2 -16 5 -59 6 -44 0 -76 -2 -72 -6z"/>
<path d="M1786 832 c14 -12 85 -35 90 -29 12 12 -31 37 -64 37 -20 0 -32 -4
-26 -8z"/>
<path d="M1095 810 c-3 -5 6 -12 20 -16 29 -7 41 -1 30 15 -8 14 -42 14 -50 1z"/>
<path d="M1665 810 c-7 -12 32 -12 60 0 16 7 13 9 -17 9 -20 1 -40 -3 -43 -9z"/>
<path d="M2375 781 c-83 -5 -93 -7 -60 -13 22 -4 59 -8 83 -8 44 0 51 -7 30
-29 -11 -10 -7 -10 17 0 40 17 59 35 51 48 -4 6 -10 10 -14 9 -4 -1 -52 -4
-107 -7z"/>
<path d="M650 701 c-25 -3 -44 -10 -43 -16 4 -15 45 -14 76 1 25 14 36 26 20
22 -5 0 -28 -4 -53 -7z"/>
<path d="M2410 689 c0 -10 70 -17 76 -7 6 9 4 9 -43 12 -18 1 -33 -1 -33 -5z"/>
<path d="M480 670 c0 -17 7 -20 39 -20 36 0 40 -3 46 -31 5 -21 11 -29 22 -25
8 3 30 6 49 6 23 0 33 4 29 11 -4 6 -22 9 -40 7 -40 -3 -45 1 -48 38 -3 30
-10 32 -56 18 -17 -5 -22 -4 -17 4 4 7 1 12 -8 12 -9 0 -16 -9 -16 -20z"/>
<path d="M1575 659 c-49 -4 -146 -9 -215 -13 -145 -8 -157 -9 -167 -20 -4 -5
82 -5 192 0 110 5 248 8 308 8 101 -2 133 6 86 21 -29 10 -101 11 -204 4z"/>
<path d="M504 614 c3 -9 6 -20 6 -25 0 -10 33 -12 43 -3 6 7 -35 44 -48 44 -4
0 -4 -7 -1 -16z"/>
<path d="M2385 604 l-70 -13 68 4 c37 2 75 9 85 14 22 13 8 13 -83 -5z"/>
<path d="M1475 540 l-430 -5 443 -3 c294 -1 441 1 437 8 -3 6 -9 9 -13 8 -4
-2 -200 -5 -437 -8z"/>
</g>
</svg>
